PathFileType	4	(X/Y/Z)	Run_200 02
DataRate	CameraRate	NumFrames	NumMarkers	Units	OrigDataRate	OrigDataStartFrame	OrigNumFrames
120	120	4	41	mm	120	164	125
Frame#	Time	LASI			RASI			LPSI			RPSI			RTH1			RTH3			LTH1			LTH2			LTH3			RTB1			RTB2			RTB3			LTB1			LTB2			LTB3			RCAL			RTOE			RMT5			LCAL			LTOE			LMT5			LACR			RACR			CLAV			C7			RUA1			RUA2			RUA3			RLEL			RMEL			LUA1			LUA2			LUA3			LLEL			LMEL			RFAsuperior			RFAradius			RFAulna			LFAsuperior			LFAradius			LFAulna		
		X1	Y1	Z1	X2	Y2	Z2	X3	Y3	Z3	X4	Y4	Z4	X5	Y5	Z5	X6	Y6	Z6	X7	Y7	Z7	X8	Y8	Z8	X9	Y9	Z9	X10	Y10	Z10	X11	Y11	Z11	X12	Y12	Z12	X13	Y13	Z13	X14	Y14	Z14	X15	Y15	Z15	X16	Y16	Z16	X17	Y17	Z17	X18	Y18	Z18	X19	Y19	Z19	X20	Y20	Z20	X21	Y21	Z21	X22	Y22	Z22	X23	Y23	Z23	X24	Y24	Z24	X25	Y25	Z25	X26	Y26	Z26	X27	Y27	Z27	X28	Y28	Z28	X29	Y29	Z29	X30	Y30	Z30	X31	Y31	Z31	X32	Y32	Z32	X33	Y33	Z33	X34	Y34	Z34	X35	Y35	Z35	X36	Y36	Z36	X37	Y37	Z37	X38	Y38	Z38	X39	Y39	Z39	X40	Y40	Z40	X41	Y41	Z41	

164	  1.366667	878.572851	993.907337	-388.999902	891.216926	973.246150	-155.276241	720.316287	1016.806342	-310.127715	719.408355	1008.238066	-215.132096	856.458311	809.739307	-93.408584	954.432148	574.846956	-117.158127	833.016792	800.364705	-442.819120	891.473537	693.036853	-419.192440	826.317194	578.475989	-384.351590	914.007166	378.254087	-171.618989	840.820150	381.490330	-113.138198	806.623023	321.802829	-173.311737	827.901075	358.029800	-288.601564	766.837946	296.101775	-357.861817	749.067688	208.048272	-279.677445	607.900737	309.440935	-185.934599	728.182123	135.911874	-179.812615	698.067949	155.601960	-89.465360	584.700863	118.427881	-271.748254	786.201887	 74.383246	-242.705370	771.713772	 59.337434	-332.532012	886.007717	1431.987491	-463.591892	840.375238	1426.660336	-72.228145	931.497421	1424.485928	-239.826920	817.285428	1491.101585	-285.908937	748.882009	1312.163686	-32.761785	681.958261	1324.018408	-66.300459	686.681283	1249.444339	-11.378967	636.432178	1197.158020	  2.534120	610.561243	1184.571274	-74.488632	827.796898	1295.938268	-516.974920	758.521204	1251.561514	-514.640904	823.553368	1206.507932	-526.668122	778.768035	1133.431314	-549.048758	728.890477	1133.899067	-477.780557	701.749506	1085.882047	 -3.846268	756.826427	990.295527	-58.888374	705.692645	961.251843	-19.523679	892.790316	1093.403615	-501.892672	972.626420	1108.798192	-404.048298	978.384753	1049.861397	-441.687041	
165	  1.375000	880.347742	997.433354	-389.136411	892.507429	979.334768	-155.527720	722.631699	1022.263146	-311.054704	721.419034	1014.558857	-215.189167	859.237422	816.663225	-92.381655	958.791251	582.625555	-117.943174	831.173806	803.788517	-441.261451	885.412221	694.913710	-416.509978	815.083852	582.467328	-382.370761	924.480071	382.112689	-173.105064	851.359917	381.833250	-114.227847	819.549443	320.199956	-174.257203	812.621054	360.822593	-287.829366	750.584239	299.726470	-356.983712	732.083668	211.762989	-279.120358	621.706797	297.045364	-186.073120	752.637409	131.194347	-181.355590	721.986111	148.877120	-90.556442	568.954688	121.498449	-272.910875	769.793049	 74.655950	-243.083606	755.096747	 59.460246	-332.727141	887.700751	1439.022667	-462.376367	836.716289	1433.741520	-72.271132	930.502333	1431.088150	-237.863517	816.792607	1497.008774	-285.648628	743.268216	1321.450827	-32.883625	676.986095	1334.469658	-67.104864	679.820094	1259.896786	-12.013674	628.251937	1208.775077	  1.482868	602.972230	1196.632933	-75.811859	831.583586	1302.255250	-516.439763	763.287265	1256.739558	-515.579042	829.233999	1212.677708	-526.084994	785.517316	1138.986114	-548.884817	734.438524	1139.074891	-478.169606	692.334806	1097.258035	 -4.098869	746.997487	1000.936879	-58.354374	695.180262	972.280032	-19.705548	899.813662	1102.588923	-499.663661	977.705360	1120.992767	-400.999260	985.752784	1061.854255	-438.006472	
166	  1.383333	882.480030	1001.150896	-388.985188	893.928003	985.935112	-155.551437	725.188735	1028.004865	-311.951828	724.211085	1020.913357	-215.146699	862.925245	823.871348	-91.585708	962.569973	590.460907	-118.812958	829.738832	807.547946	-439.596436	879.220037	697.330637	-413.745129	803.965043	587.359031	-380.407406	934.482457	386.244213	-175.020854	861.618624	381.820908	-115.558617	832.587217	318.503214	-175.892442	797.506292	364.532958	-287.072644	734.476539	304.264675	-356.129500	715.466082	216.305200	-278.523966	636.240646	284.164801	-186.289631	777.509374	126.874514	-183.537092	746.425259	142.209592	-92.136819	553.842836	125.711157	-274.105981	753.611566	 75.053694	-243.375005	738.629496	 59.667386	-332.844178	889.472408	1446.367636	-461.096506	833.263048	1441.412462	-72.420460	929.449659	1438.046726	-235.889733	816.256925	1503.233809	-285.378752	738.080727	1331.258856	-33.062230	672.443622	1345.475579	-67.929250	673.515708	1270.809742	-12.744753	620.649661	1220.756005	  0.221516	595.864196	1209.215413	-77.434372	835.252924	1309.081045	-515.964891	767.811416	1262.601949	-516.568020	834.576087	1219.483568	-525.671298	791.858584	1145.263858	-548.950683	739.511995	1144.871776	-478.779874	683.623282	1109.013060	 -4.521902	738.208566	1012.172178	-57.973298	685.645514	983.722372	-20.297994	906.208743	1112.201241	-497.433508	982.012133	1133.352450	-398.077760	992.202042	1073.964201	-434.346509	
167	  1.391667	884.778102	1005.101927	-388.661731	895.419558	992.995603	-155.295991	727.757381	1033.997724	-312.532604	727.117442	1027.573050	-214.994981	867.097355	831.378045	-90.829017	965.677925	598.087738	-119.901577	828.399931	811.577226	-437.810820	873.170888	700.441313	-411.016568	793.206709	593.137339	-378.663090	943.972506	390.316421	-177.201921	871.686113	381.451546	-117.037830	845.857390	316.781427	-177.876640	782.755150	369.231086	-286.474232	718.761285	309.790505	-355.430721	699.680852	221.632630	-277.906080	651.593246	270.954911	-186.585879	802.685923	123.054981	-186.240170	771.303367	135.687560	-94.221403	539.555313	131.164704	-275.247745	737.720614	 75.564289	-243.557564	722.386612	 59.924706	-332.784922	891.334709	1453.888083	-459.799042	830.075034	1449.438492	-72.648030	928.334500	1445.204072	-233.981637	815.699305	1509.668407	-285.148041	733.305709	1341.405587	-33.293576	668.359897	1356.851683	-68.837967	667.759374	1281.972057	-13.537290	613.637298	1232.902423	 -1.218176	589.358977	1222.081988	-79.314787	838.926290	1316.260815	-515.577671	772.084490	1269.115511	-517.560247	839.470501	1226.808294	-525.453038	797.774314	1152.102921	-549.259138	744.210164	1151.148579	-479.627822	675.637917	1120.930817	 -5.103751	730.392719	1023.698551	-57.769622	677.062674	995.361772	-21.191086	911.950365	1122.027764	-495.379337	985.618423	1145.662442	-395.315097	997.757117	1085.970079	-430.625233	
